<?xml version="1.0" ?><svg data-name="Layer 1" id="Layer_1" viewBox="0 0 64 64" xmlns="http://www.w3.org/2000/svg"><defs><style>.cls-1{fill:#8f6c56;}.cls-2{fill:#838bc5;}.cls-3{fill:#ba9bc9;}</style></defs><polyline class="cls-1" points="40 61 40 33 60 33 60 61"/><polyline class="cls-1" points="16 55 16 49 34 49 34 55"/><rect class="cls-2" height="40" width="10" x="20" y="9"/><polyline class="cls-2" points="14 61 14 55 36 55 36 61"/><polyline class="cls-1" points="31 5 31 9 19 9 19 5"/><path class="cls-2" d="M51,5H5A2,2,0,0,1,3,3H3A2,2,0,0,1,5,1H46Z"/><rect class="cls-2" height="7" width="2" x="6" y="4"/><rect class="cls-2" height="7" width="2" x="49" y="5"/><rect class="cls-1" height="2" width="60" x="2" y="61"/><rect class="cls-1" height="4" width="22" x="40" y="12"/><path class="cls-3" d="M62,11H40a1,1,0,0,0-1,1v4a1,1,0,0,0,1,1H62a1,1,0,0,0,1-1V12A1,1,0,0,0,62,11Zm-8,2v2H49V13ZM41,13h6v2H41Zm20,2H56V13h5Z"/><path class="cls-2" d="M60,32H40a1,1,0,0,0-1,1V61h2V58h4v3h2V58h5v3h2V58h5v3h2V33A1,1,0,0,0,60,32Zm-1,4H54V34h5Zm-9,4V38h5v2Zm0,8V46h5v2Zm-5-4V42h5v2Zm2-8V34h5v2Zm1,2v2H41V38Zm-5,4v2H41V42Zm5,4v2H41V46Zm-4,4v2H41V50Zm2,0h5v2H46Zm9,4v2H50V54Zm-2-2V50h6v2Zm4-4V46h2v2Zm-5-4V42h7v2Zm5-4V38h2v2ZM45,34v2H41V34ZM41,54h7v2H41Zm16,2V54h2v2Z"/><circle class="cls-1" cx="7" cy="15" r="5"/></svg>